<?xml version="1.0" standalone="no"?>
<!DOCTYPE svg PUBLIC "-//W3C//DTD SVG 20010904//EN"
 "http://www.w3.org/TR/2001/REC-SVG-20010904/DTD/svg10.dtd">
<svg version="1.0" xmlns="http://www.w3.org/2000/svg"
 width="981.000000pt" height="930.000000pt" viewBox="0 0 981.000000 930.000000"
 preserveAspectRatio="xMidYMid meet">

<g transform="translate(0.000000,930.000000) scale(0.100000,-0.100000)"
fill="#000000" stroke="none">
<path d="M5061 9275 c-122 -34 -221 -112 -306 -239 -113 -170 -123 -215 -135
-616 -12 -369 -21 -451 -70 -645 -178 -700 -634 -1409 -1389 -2160 l-141 -139
-62 68 -63 68 -1340 2 c-1430 1 -1390 2 -1459 -47 -16 -11 -38 -41 -49 -66
-17 -40 -21 -79 -29 -355 -13 -449 -4 -4773 11 -4898 22 -191 36 -204 229
-219 358 -28 2506 -19 2613 11 20 6 52 20 70 33 59 39 68 87 77 402 4 151 10
277 14 280 3 4 152 -32 330 -79 667 -175 1133 -271 1763 -361 1170 -167 2694
-251 3025 -166 169 43 311 122 426 236 118 116 190 248 215 392 22 123 -11
308 -76 437 -19 38 -32 73 -29 78 3 5 42 27 87 50 219 109 355 243 447 440 59
126 84 233 83 358 -1 121 -20 205 -83 363 -22 55 -39 106 -36 113 3 7 33 27
67 44 157 77 313 248 412 450 l52 105 3 185 c5 280 -21 371 -162 564 l-66 90
23 27 c157 190 213 283 262 439 91 288 -8 619 -257 855 -122 116 -236 177
-386 206 -38 7 -521 13 -1492 18 -1023 5 -1443 11 -1462 19 l-26 11 33 98
c106 313 232 871 255 1126 13 146 13 668 0 822 -37 439 -206 881 -450 1180
-212 259 -500 419 -775 431 -70 3 -116 0 -154 -11z m282 -432 c107 -42 215
-132 319 -267 188 -243 314 -538 347 -811 31 -249 40 -616 21 -818 -33 -341
-166 -852 -369 -1410 -58 -159 -53 -205 32 -301 l42 -48 1440 -9 c1420 -9
1860 -18 1966 -40 73 -15 109 -39 152 -101 66 -97 70 -115 71 -298 1 -158 0
-167 -25 -220 -29 -61 -91 -130 -141 -156 -78 -41 -127 -45 -649 -54 -474 -7
-509 -9 -551 -28 -131 -57 -162 -236 -60 -345 51 -54 89 -58 542 -67 541 -11
581 -14 643 -48 126 -68 197 -230 184 -415 -18 -240 -133 -363 -371 -396 -47
-7 -284 -11 -610 -11 l-532 0 -51 -52 c-62 -65 -86 -110 -86 -164 0 -47 32
-108 87 -165 l34 -36 324 -7 c524 -11 572 -20 667 -122 86 -91 105 -156 99
-337 -3 -116 -7 -139 -30 -188 -47 -102 -130 -175 -228 -199 -28 -7 -225 -15
-510 -20 -527 -10 -563 -15 -617 -73 -30 -34 -63 -118 -63 -161 1 -37 37 -103
80 -145 51 -49 88 -57 295 -66 174 -7 337 -22 371 -35 38 -15 112 -88 144
-145 42 -74 63 -165 58 -250 -11 -159 -104 -241 -313 -276 -194 -33 -1077 -5
-1775 57 -1143 100 -2090 268 -2990 529 -143 41 -262 75 -265 75 -3 0 -5 822
-5 1827 l0 1826 323 326 c437 442 644 673 862 963 390 516 665 1078 779 1588
50 225 59 331 62 688 3 381 -3 356 98 408 43 21 60 24 104 20 28 -4 71 -14 95
-23z m-2753 -6023 l0 -2360 -1080 0 -1080 0 0 2353 c0 1295 3 2357 7 2360 3 4
489 7 1080 7 l1073 0 0 -2360z"/>
</g>
</svg>
